<?xml version="1.0" standalone="no"?>
<!DOCTYPE svg PUBLIC "-//W3C//DTD SVG 20010904//EN"
 "http://www.w3.org/TR/2001/REC-SVG-20010904/DTD/svg10.dtd">
<svg version="1.0" xmlns="http://www.w3.org/2000/svg"
 width="256.000000pt" height="256.000000pt" viewBox="0 0 256.000000 256.000000"
 preserveAspectRatio="xMidYMid meet">
<metadata>
Created by potrace 1.14, written by Peter Selinger 2001-2017
</metadata>
<g transform="translate(0.000000,256.000000) scale(0.100000,-0.100000)"
fill="#000000" stroke="none">
<path d="M0 1280 l0 -1280 1280 0 1280 0 0 1280 0 1280 -1280 0 -1280 0 0
-1280z m1319 -20 c1 -1017 0 -1046 -19 -1070 -19 -25 -19 -25 -34 -5 -14 18
-15 141 -16 1018 0 625 4 1004 10 1015 12 22 40 108 41 130 1 9 5 4 9 -13 4
-16 8 -500 9 -1075z m226 691 c3 -53 7 -109 10 -126 13 -87 16 -216 18 -691
l2 -522 53 -61 53 -60 -37 -16 c-20 -8 -42 -15 -50 -15 -7 0 -36 27 -64 61
l-50 60 0 657 c0 592 6 784 27 877 6 29 7 29 19 -19 7 -27 15 -92 19 -145z
m-495 -143 c17 -89 33 -494 34 -893 l1 -341 -49 -57 c-52 -61 -68 -67 -117
-41 l-30 15 48 57 48 56 8 556 c8 597 9 656 20 666 4 4 7 16 7 26 0 41 19 14
30 -44z m149 -771 l1 -508 -26 -92 c-14 -51 -29 -95 -33 -99 -3 -4 -20 4 -38
17 l-31 25 21 63 c20 58 21 91 27 542 6 414 9 487 23 530 10 27 16 57 15 65
-1 8 4 31 12 50 l15 35 6 -60 c4 -33 7 -289 8 -568z m191 348 c0 -34 13 -89
51 -211 5 -17 9 -167 9 -334 0 -277 2 -310 21 -378 l21 -74 -28 -29 c-15 -16
-31 -26 -36 -21 -4 4 -19 46 -33 92 l-25 85 0 470 c0 307 4 465 10 455 5 -8
10 -33 10 -55z"/>
</g>
</svg>
